HIERARCHY
ROOT SpineBase
{
  OFFSET 0.000000 0.000000 0.000000
  CHANNELS 6 Xposition Yposition Zposition Zrotation Xrotation Yrotation
  JOINT SpineMid
  {
    OFFSET 0.000000 32.402025 0.000000
    CHANNELS 3 Zrotation Xrotation Yrotation
    JOINT SpineShoulder
    {
      OFFSET -0.108322 23.976834 -0.768696
      CHANNELS 3 Zrotation Xrotation Yrotation
      JOINT Neck
      {
        OFFSET -0.095520 7.921753 -0.608237
        CHANNELS 3 Zrotation Xrotation Yrotation
        JOINT Head
        {
          OFFSET -5.421534 10.916167 5.530155
          CHANNELS 3 Zrotation Xrotation Yrotation
          End Site
          {
            OFFSET 0 0 0
          }
        }
      }
      JOINT ShoulderLeft
      {
        OFFSET -8.676089 -6.724606 15.349801
        CHANNELS 3 Zrotation Xrotation Yrotation
        JOINT ElbowLeft
        {
          OFFSET -1.724323 -23.114692 -3.949732
          CHANNELS 3 Zrotation Xrotation Yrotation
          JOINT WristLeft
          {
            OFFSET -2.382667 -30.181068 2.270488
            CHANNELS 3 Zrotation Xrotation Yrotation
            JOINT HandLeft
            {
              OFFSET -0.388775 -4.159549 -2.515861
              CHANNELS 3 Zrotation Xrotation Yrotation
              JOINT HandTipLeft
              {
                OFFSET -0.305096 -5.697455 -1.013447
                CHANNELS 3 Zrotation Xrotation Yrotation
                End Site
                {
                  OFFSET 0 0 0
                }
              }
              JOINT ThumbLeft
              {
                OFFSET -3.396298 0.237718 -1.537518
                CHANNELS 3 Zrotation Xrotation Yrotation
                End Site
                {
                  OFFSET 0 0 0
                }
              }
            }
          }
        }
      }
      JOINT ShoulderRight
      {
        OFFSET 7.558614 -3.117008 -14.915557
        CHANNELS 3 Zrotation Xrotation Yrotation
        JOINT ElbowRight
        {
          OFFSET 6.312496 -24.600899 -8.442438
          CHANNELS 3 Zrotation Xrotation Yrotation
          JOINT WristRight
          {
            OFFSET -4.137639 -24.876928 -4.373484
            CHANNELS 3 Zrotation Xrotation Yrotation
            JOINT HandRight
            {
              OFFSET -2.310732 -7.316878 1.364151
              CHANNELS 3 Zrotation Xrotation Yrotation
              JOINT HandTipRight
              {
                OFFSET -0.846593 -6.403156 -1.940761
                CHANNELS 3 Zrotation Xrotation Yrotation
                End Site
                {
                  OFFSET 0 0 0
                }
              }
              JOINT ThumbRight
              {
                OFFSET -5.025825 -0.884812 -8.109996
                CHANNELS 3 Zrotation Xrotation Yrotation
                End Site
                {
                  OFFSET 0 0 0
                }
              }
            }
          }
        }
      }
    }
  }
  JOINT HipLeft
  {
    OFFSET -3.274719 0.075673 2.023189
    CHANNELS 3 Zrotation Xrotation Yrotation
    JOINT KneeLeft
    {
      OFFSET 0.711037 -35.124425 3.030717
      CHANNELS 3 Zrotation Xrotation Yrotation
      JOINT AnkleLeft
      {
        OFFSET 7.439506 -35.173669 2.405530
        CHANNELS 3 Zrotation Xrotation Yrotation
        JOINT FootLeft
        {
          OFFSET -9.926093 -3.357194 -8.670446
          CHANNELS 3 Zrotation Xrotation Yrotation
          End Site
          {
            OFFSET 0 0 0
          }
        }
      }
    }
  }
  JOINT HipRight
  {
    OFFSET 1.793701 2.227340 -9.702383
    CHANNELS 3 Zrotation Xrotation Yrotation
    JOINT KneeRight
    {
      OFFSET 11.377979 -33.570863 -7.499925
      CHANNELS 3 Zrotation Xrotation Yrotation
      JOINT AnkleRight
      {
        OFFSET 9.843275 -35.022832 0.001614
        CHANNELS 3 Zrotation Xrotation Yrotation
        JOINT FootRight
        {
          OFFSET -10.172356 -3.302812 -8.582474
          CHANNELS 3 Zrotation Xrotation Yrotation
          End Site
          {
            OFFSET 0 0 0
          }
        }
      }
    }
  }
}
MOTION
Frames: 6
Frame Time: 0.033333
61.139375 74.247136 316.786266 -0.000000 0.000000 66.623416 -0.000000 0.000000 -66.623416 -0.000000 0.000000 0.000000 -0.000000 0.000000 0.000000 0.000000 0.000000 0.000000 -0.000000 0.000000 0.000000 -0.000000 0.000000 0.000000 -0.000000 0.000000 0.000000 -0.000000 0.000000 0.000000 0.000000 0.000000 0.000000 0.000000 0.000000 0.000000 -0.000000 0.000000 0.000000 -0.000000 0.000000 0.000000 -0.000000 0.000000 0.000000 -0.000000 0.000000 0.000000 0.000000 0.000000 0.000000 0.000000 0.000000 0.000000 -0.000000 0.000000 -66.623416 -0.000000 0.000000 0.000000 -0.000000 0.000000 0.000000 0.000000 0.000000 0.000000 -0.000000 0.000000 -66.623416 -0.000000 0.000000 0.000000 -0.000000 0.000000 0.000000 0.000000 0.000000 0.000000
61.259961 74.310505 316.605147 -0.049413 0.244186 66.233284 -0.203564 -0.143633 -66.233433 -0.000000 0.000000 0.000000 -0.079437 -1.104942 -0.511985 0.000000 0.000000 0.000000 -0.802825 -4.720307 0.459416 1.365264 8.839011 -0.879968 -1.589342 -7.007235 1.134860 1.369515 4.660663 -1.135187 0.000000 0.000000 0.000000 0.000000 0.000000 0.000000 -0.000000 0.000000 0.000000 -0.000000 0.000000 0.000000 -0.000000 0.000000 0.000000 -2.886928 -2.562715 1.153434 0.000000 0.000000 0.000000 0.000000 0.000000 0.000000 -0.203564 -0.143633 -66.233433 -0.000000 0.000000 0.000000 -0.000000 0.000000 0.000000 0.000000 0.000000 0.000000 -0.203564 -0.143633 -66.233433 -0.000000 0.000000 0.000000 -0.000000 0.000000 0.000000 0.000000 0.000000 0.000000
61.356686 74.371484 316.425617 -0.112738 0.470465 65.884531 -0.383345 -0.295118 -65.885056 -0.000000 0.000000 0.000000 -0.185270 -2.100049 -0.962333 0.000000 0.000000 0.000000 -1.491312 -9.031186 0.822457 2.691093 16.537477 -1.836703 -3.049061 -13.365699 2.025837 2.759588 9.111475 -2.331020 0.000000 0.000000 0.000000 0.000000 0.000000 0.000000 -0.993520 -0.350451 0.248812 0.191304 0.843876 -0.187154 0.805383 -0.495084 -0.055876 -5.151413 -4.877436 2.001867 0.000000 0.000000 0.000000 0.000000 0.000000 0.000000 -0.383345 -0.295118 -65.885056 -0.000000 0.000000 0.000000 -0.000000 0.000000 0.000000 0.000000 0.000000 0.000000 -1.638334 0.155752 -66.006458 0.922316 0.963163 0.112123 -0.000000 0.000000 0.000000 0.000000 0.000000 0.000000
61.429549 74.430071 316.247678 -0.190056 0.678562 65.572686 -0.539234 -0.453651 -65.573695 -0.000000 0.000000 0.000000 -0.314557 -2.977017 -1.347202 0.000000 0.000000 0.000000 -2.054234 -12.777864 1.097696 3.929225 22.999328 -2.809080 -4.348555 -18.916382 2.685246 4.071432 13.162700 -3.500229 0.000000 0.000000 0.000000 0.000000 0.000000 0.000000 -1.400115 -0.501604 0.347280 0.257359 1.183447 -0.254429 1.148917 -0.685157 -0.081384 -6.837345 -6.936666 2.605023 0.000000 0.000000 0.000000 0.000000 0.000000 0.000000 -0.539234 -0.453651 -65.573695 -0.000000 0.000000 0.000000 -0.044934 0.318558 -0.818856 0.000000 0.000000 0.000000 -2.357560 0.157833 -65.762722 1.304311 1.406870 0.168317 -0.058465 0.316065 -0.814238 0.000000 0.000000 0.000000
61.478550 74.486267 316.071328 -0.281435 0.868222 65.293987 -0.671135 -0.618551 -65.295477 -0.000000 0.000000 0.000000 -0.464393 -3.728794 -1.663077 0.000000 0.000000 0.000000 -2.484790 -15.853272 1.297584 5.009693 28.177337 -3.719917 -5.438075 -23.502772 3.136915 5.178254 16.635915 -4.532514 0.000000 0.000000 0.000000 0.000000 0.000000 0.000000 -1.746290 -0.636123 0.428900 0.303468 1.467288 -0.305144 1.583809 0.538015 -0.516753 -8.067525 -10.166490 3.229367 0.000000 0.000000 0.000000 0.000000 0.000000 0.000000 -0.671135 -0.618551 -65.295477 -0.000000 0.000000 0.000000 -0.059009 0.409798 -1.047728 0.000000 0.000000 0.000000 -3.008474 0.112551 -65.557568 1.633342 1.824988 0.225751 -0.076458 0.406654 -1.041735 0.000000 0.000000 0.000000
61.503689 74.540072 315.896569 -0.386931 1.039208 65.045262 -0.636105 0.048816 -65.066444 -0.119487 -0.067079 -0.038628 0.191741 -4.765430 -1.850342 0.000000 0.000000 0.000000 -1.947280 -18.615237 1.478366 5.848710 32.062703 -4.481517 -6.264173 -27.008448 3.421306 5.952321 19.404054 -5.318120 0.000000 0.000000 0.000000 0.000000 0.000000 0.000000 -1.211733 -1.170737 0.540058 0.329384 1.694991 -0.339904 1.640321 1.720950 -0.991206 -8.402055 -13.090356 3.724520 0.000000 0.000000 0.000000 0.000000 0.000000 0.000000 -0.778967 -0.789240 -65.047119 -0.000000 0.000000 0.000000 -0.072808 0.493636 -1.254803 0.000000 0.000000 0.000000 -3.590182 0.021848 -65.388108 1.909339 2.217330 0.285206 -0.093880 0.489915 -1.247493 0.000000 0.000000 0.000000
